<svg width="26" height="26" viewBox="0 0 26 26" fill="none" xmlns="http://www.w3.org/2000/svg">
<path d="M22.855 1.38247L13 11.2375L3.14503 1.38247C2.908 1.16556 2.59642 1.04848 2.27521 1.05559C1.954 1.06271 1.64792 1.19349 1.42073 1.42067C1.19354 1.64786 1.06277 1.95394 1.05565 2.27515C1.04854 2.59637 1.16562 2.90794 1.38253 3.14497L11.2325 13L1.38003 22.8525C1.25966 22.9672 1.16343 23.1048 1.09701 23.2572C1.0306 23.4097 0.995319 23.5738 0.99326 23.7401C0.991201 23.9064 1.0224 24.0714 1.08502 24.2254C1.14765 24.3794 1.24043 24.5194 1.35792 24.637C1.47541 24.7547 1.61524 24.8477 1.76918 24.9105C1.92313 24.9734 2.08808 25.0048 2.25434 25.003C2.42061 25.0012 2.58483 24.9661 2.73736 24.8999C2.88989 24.8337 3.02764 24.7377 3.14253 24.6175L13 14.765L22.855 24.62C23.0921 24.8369 23.4036 24.954 23.7248 24.9468C24.0461 24.9397 24.3521 24.8089 24.5793 24.5818C24.8065 24.3546 24.9373 24.0485 24.9444 23.7273C24.9515 23.4061 24.8344 23.0945 24.6175 22.8575L14.7625 13.0025L24.6175 3.14497C24.7379 3.03025 24.8341 2.89264 24.9005 2.7402C24.967 2.58777 25.0022 2.4236 25.0043 2.25733C25.0064 2.09107 24.9752 1.92607 24.9125 1.77204C24.8499 1.61801 24.7571 1.47805 24.6396 1.36039C24.5221 1.24274 24.3823 1.14975 24.2284 1.08691C24.0744 1.02407 23.9095 0.992636 23.7432 0.99446C23.5769 0.996283 23.4127 1.03133 23.2602 1.09753C23.1077 1.16373 22.9699 1.25976 22.855 1.37997V1.38247Z" fill="#EE6C4D"/>
</svg>
