<svg width="18" height="16" viewBox="0 0 18 16" fill="none" xmlns="http://www.w3.org/2000/svg">
<path d="M0.333496 1.49999C0.333496 1.21267 0.447633 0.937122 0.650797 0.733958C0.853962 0.530793 1.12951 0.416656 1.41683 0.416656H16.5835C16.8708 0.416656 17.1464 0.530793 17.3495 0.733958C17.5527 0.937122 17.6668 1.21267 17.6668 1.49999C17.6668 1.78731 17.5527 2.06286 17.3495 2.26602C17.1464 2.46919 16.8708 2.58332 16.5835 2.58332H1.41683C1.12951 2.58332 0.853962 2.46919 0.650797 2.26602C0.447633 2.06286 0.333496 1.78731 0.333496 1.49999ZM0.333496 14.5C0.333496 14.2127 0.447633 13.9371 0.650797 13.734C0.853962 13.5308 1.12951 13.4167 1.41683 13.4167H16.5835C16.8708 13.4167 17.1464 13.5308 17.3495 13.734C17.5527 13.9371 17.6668 14.2127 17.6668 14.5C17.6668 14.7873 17.5527 15.0629 17.3495 15.266C17.1464 15.4692 16.8708 15.5833 16.5835 15.5833H1.41683C1.12951 15.5833 0.853962 15.4692 0.650797 15.266C0.447633 15.0629 0.333496 14.7873 0.333496 14.5ZM1.41683 6.91666C1.12951 6.91666 0.853962 7.03079 0.650797 7.23396C0.447633 7.43712 0.333496 7.71267 0.333496 7.99999C0.333496 8.28731 0.447633 8.56286 0.650797 8.76602C0.853962 8.96919 1.12951 9.08332 1.41683 9.08332H10.0835C10.3708 9.08332 10.6464 8.96919 10.8495 8.76602C11.0527 8.56286 11.1668 8.28731 11.1668 7.99999C11.1668 7.71267 11.0527 7.43712 10.8495 7.23396C10.6464 7.03079 10.3708 6.91666 10.0835 6.91666H1.41683Z" fill="#EE6C4D"/>
</svg>
